<?xml version="1.0" encoding="UTF-8" standalone="no"?>
<svg
   version="1.1"
   width="640"
   height="640"
   viewBox="0 0 640 640"
   xml:space="preserve"
   id="svg1"
   sodipodi:docname="LogoFull.svg"
   inkscape:version="1.3 (0e150ed, 2023-07-21)"
   xmlns:inkscape="http://www.inkscape.org/namespaces/inkscape"
   xmlns:sodipodi="http://sodipodi.sourceforge.net/DTD/sodipodi-0.dtd"
   xmlns="http://www.w3.org/2000/svg"
   xmlns:svg="http://www.w3.org/2000/svg"><sodipodi:namedview
   id="namedview1"
   pagecolor="#ffffff"
   bordercolor="#000000"
   borderopacity="0.25"
   inkscape:showpageshadow="2"
   inkscape:pageopacity="0.0"
   inkscape:pagecheckerboard="0"
   inkscape:deskcolor="#d1d1d1"
   inkscape:zoom="0.54558895"
   inkscape:cx="21.99458"
   inkscape:cy="396.81889"
   inkscape:window-width="1440"
   inkscape:window-height="764"
   inkscape:window-x="0"
   inkscape:window-y="25"
   inkscape:window-maximized="0"
   inkscape:current-layer="svg1" />&#10;<desc
   id="desc1">Created with Fabric.js 5.3.0</desc>&#10;<defs
   id="defs1">&#10;</defs>&#10;&#10;<g
   id="g12"
   transform="translate(-0.99507187,-7.073918)"><path
     style="font-size:145px;line-height:1;font-family:VAGRounded;-inkscape-font-specification:'VAGRounded, Normal';white-space:pre;fill:#d23535"
     d="m 550.18623,287.14833 q 5.22,0 8.99,3.625 3.77,3.625 3.77,8.555 0,5.075 -3.625,8.845 -3.625,3.77 -8.555,3.77 -4.93,0 -8.845,-3.915 -3.77,-3.915 -3.77,-8.99 0,-4.785 3.48,-8.265 3.625,-3.625 8.555,-3.625 z"
     id="path9" /><path
     style="font-size:145px;line-height:1;font-family:VAGRounded;-inkscape-font-specification:'VAGRounded, Normal';white-space:pre;fill:#d23535"
     d="m 513.06645,287.14833 q 5.22,0 8.99,3.625 3.77,3.625 3.77,8.555 0,5.075 -3.625,8.845 -3.625,3.77 -8.555,3.77 -4.93,0 -8.845,-3.915 -3.77,-3.915 -3.77,-8.99 0,-4.785 3.48,-8.265 3.625,-3.625 8.555,-3.625 z"
     id="path7" /><path
     style="font-size:145px;line-height:1;font-family:VAGRounded;-inkscape-font-specification:'VAGRounded, Normal';white-space:pre;fill:#d23535"
     d="m 123.0316,-107.7447 v 23.345 q 10.295,-6.09 19.575,-6.09 11.165,0 18.56,6.96 7.395,6.96 7.395,20.01 v 34.8 q 0,6.09 -1.45,8.845 -2.755,5.365 -9.135,5.365 -6.525,0 -9.28,-5.365 -1.45,-2.755 -1.45,-8.845 v -28.71 q 0,-6.815 -3.19,-10.73 -3.19,-3.915 -8.7,-3.915 -5.365,0 -8.845,3.77 -3.48,3.77 -3.48,9.425 v 30.16 q 0,6.09 -1.45,8.845 -2.755,5.365 -9.135,5.365 -6.525,0 -9.28,-5.365 -1.45,-2.755 -1.45,-8.845 v -79.025 q 0,-6.09 1.45,-8.845 2.755,-5.365 9.28,-5.365 6.38,0 9.135,5.365 1.45,2.9 1.45,8.845 z"
     transform="translate(320,377.93737)"
     id="path6" /><path
     style="font-size:145px;line-height:1;font-family:VAGRounded;-inkscape-font-specification:'VAGRounded, Normal';white-space:pre;fill:#d23535"
     d="m 68.366866,-90.4897 q 10.585,0 18.415,4.35 5.945,3.335 5.945,9.715 0,3.915 -2.465,6.815 -2.465,2.755 -5.945,2.755 -1.74,0 -7.685,-2.175 -4.35,-1.595 -7.685,-1.595 -6.815,0 -11.31,5.22 -4.35,5.075 -4.35,13.195 0,8.265 4.495,13.34 4.495,4.93 11.745,4.93 4.06,0 8.265,-1.885 4.205,-2.03 6.235,-2.03 3.77,0 6.235,2.9 2.61,2.755 2.61,6.815 0,4.785 -4.06,7.83 -8.265,6.235 -21.315,6.235 -15.66,0 -25.81,-11.02 -9.715,-10.585 -9.715,-27.405 0,-17.98 11.02,-27.985 11.02,-10.005 25.375,-10.005 z"
     transform="translate(320,377.93737)"
     id="path5" /><path
     style="font-size:145px;line-height:1;font-family:VAGRounded;-inkscape-font-specification:'VAGRounded, Normal';white-space:pre;fill:#d23535"
     d="m -43.572709,-28.7197 v -48.865 q 0,-5.655 2.9,-8.99 3.045,-3.48 7.975,-3.48 6.96,0 9.86,7.395 8.41,-7.83 19.5750003,-7.83 11.31,0 18.7049997,6.525 7.54,6.525 7.54,20.3 v 34.945 q 0,6.09 -1.45,8.845 -2.755,5.365 -9.135,5.365 -6.5249997,0 -9.2799997,-5.365 -1.45,-2.755 -1.45,-8.845 v -29.87 q 0,-6.235 -3.19,-9.86 -3.19,-3.625 -8.7000003,-3.625 -5.075,0 -8.555,3.625 -3.48,3.625 -3.48,8.99 v 30.74 q 0,6.09 -1.45,8.845 -2.755,5.365 -9.135,5.365 -6.525,0 -9.28,-5.365 -1.45,-2.755 -1.45,-8.845 z"
     transform="translate(320,377.93737)"
     id="path4" /><path
     style="font-size:145px;line-height:1;font-family:VAGRounded;-inkscape-font-specification:'VAGRounded, Normal';white-space:pre;fill:#d23535"
     d="m -56.042675,-75.8447 v 31.61 q 0,11.02 -5.22,17.545 -10.15,12.615 -27.84,12.615 -17.689995,0 -27.839995,-12.615 -5.22,-6.525 -5.22,-17.545 v -31.61 q 0,-6.09 1.45,-8.845 2.755,-5.365 9.28,-5.365 6.38,0 9.135,5.365 1.45,2.9 1.45,8.845 v 29 q 0,5.945 3.334995,9.28 3.48,3.19 8.41,3.19 4.93,0 8.265,-3.19 3.48,-3.335 3.48,-9.28 v -29 q 0,-6.09 1.45,-8.845 2.755,-5.365 9.28,-5.365 6.38,0 9.135,5.365 1.45,2.9 1.45,8.845 z"
     transform="translate(320,377.93737)"
     id="path3" /><path
     style="font-size:145px;line-height:1;font-family:VAGRounded;-inkscape-font-specification:'VAGRounded, Normal';white-space:pre;fill:#d23535"
     d="m -242.80251,-28.7197 v -49.01 q 0,-5.51 2.9,-8.845 2.9,-3.48 7.685,-3.48 5.51,0 10.295,6.96 8.265,-7.395 18.705,-7.395 7.975,0 14.5,3.625 2.755,1.595 5.945,5.655 11.6,-9.28 22.33,-9.28 11.02,0 18.27,7.105 7.395,6.96 7.395,17.545 v 37.12 q 0,6.09 -1.45,8.845 -2.755,5.365 -9.135,5.365 -6.525,0 -9.28,-5.365 -1.45,-2.755 -1.45,-8.845 v -32.335 q 0,-4.93 -3.045,-7.975 -2.9,-3.045 -7.83,-3.045 -4.93,0 -8.12,3.045 -3.045,3.045 -3.045,7.975 v 32.335 q 0,6.09 -1.45,8.845 -2.755,5.365 -9.135,5.365 -6.525,0 -9.28,-5.365 -1.45,-2.755 -1.45,-8.845 v -30.305 q 0,-13.05 -11.02,-13.05 -4.785,0 -7.975,3.19 -3.045,3.045 -3.045,7.83 v 32.335 q 0,6.09 -1.45,8.845 -2.755,5.365 -9.135,5.365 -6.525,0 -9.28,-5.365 -1.45,-2.755 -1.45,-8.845 z"
     transform="translate(320,377.93737)"
     id="text1" /><path
     style="fill:#000000;fill-opacity:0;fill-rule:nonzero;stroke:#d23535;stroke-width:21.2729;stroke-linecap:round;stroke-dasharray:none;stroke-opacity:1"
     d="m 512.77572,327.97661 v 25.16738"
     id="path11" /><path
     style="fill:#000000;fill-opacity:0;fill-rule:nonzero;stroke:#d23535;stroke-width:21.2726;stroke-linecap:round;stroke-dasharray:none;stroke-opacity:1"
     d="m 550.88631,328.06936 v 25.16738"
     id="path11-6" /><path
     style="fill:#000000;fill-opacity:0;fill-rule:nonzero;stroke:#d23535;stroke-width:19.2851;stroke-linecap:round;stroke-dasharray:none;stroke-opacity:1"
     d="m 512.16672,380.95051 c 0,26.44159 39.50393,28.29716 39.50393,0"
     id="path12" /></g></svg>
